<?xml version="1.0" standalone="no"?>
<!DOCTYPE svg PUBLIC "-//W3C//DTD SVG 20010904//EN"
 "http://www.w3.org/TR/2001/REC-SVG-20010904/DTD/svg10.dtd">
<svg version="1.0" xmlns="http://www.w3.org/2000/svg"
 width="80.000000pt" height="80.000000pt" viewBox="0 0 80.000000 80.000000"
 preserveAspectRatio="xMidYMid meet">
<metadata>
Created by potrace 1.14, written by Peter Selinger 2001-2017
</metadata>
<g transform="translate(0.000000,80.000000) scale(0.100000,-0.100000)"
fill="#000000" stroke="none">
<path d="M250 729 c0 -11 -5 -29 -11 -40 -16 -31 -19 -58 -7 -65 6 -4 15 1 20
10 8 15 13 12 39 -20 24 -30 29 -46 28 -80 -2 -24 -6 -41 -11 -38 -7 5 -9 -1
-12 -38 -1 -7 -7 -19 -13 -26 -16 -16 -17 -48 -2 -57 15 -10 38 25 39 59 0 16
3 26 6 23 4 -3 14 -2 24 3 15 8 16 1 15 -81 -2 -90 5 -110 29 -90 10 8 16 4
27 -17 8 -15 19 -30 25 -34 6 -4 10 -19 8 -34 -1 -15 5 -41 13 -59 25 -53 15
-62 -64 -60 -37 1 -71 3 -75 4 -11 2 -10 49 1 53 6 2 12 16 15 32 3 16 10 34
16 40 11 11 14 66 4 66 -14 0 -49 -55 -46 -72 2 -10 -4 -25 -12 -33 -8 -9 -13
-21 -11 -28 3 -7 -4 -23 -14 -36 -25 -32 -91 -39 -91 -9 0 10 5 18 11 18 5 0
8 4 5 8 -3 5 2 21 10 36 7 16 14 39 14 52 0 13 4 24 10 24 16 0 33 43 36 88 1
35 -1 42 -15 39 -9 -2 -15 -9 -13 -17 2 -7 -4 -30 -12 -51 -9 -22 -13 -39 -10
-39 3 0 -6 -15 -20 -33 -15 -19 -26 -40 -26 -48 0 -8 -12 -33 -26 -55 -23 -36
-30 -40 -65 -40 -21 0 -40 5 -40 11 -3 21 3 39 22 64 10 14 20 35 22 46 2 11
10 34 17 50 22 53 28 69 41 110 6 22 17 51 23 65 7 14 12 32 11 40 0 8 4 18 9
22 5 3 11 19 14 35 2 15 7 30 13 31 11 4 12 62 1 62 -17 0 -42 -42 -42 -73 0
-17 -10 -48 -22 -67 -12 -19 -23 -41 -24 -48 -1 -8 -6 -21 -10 -30 -4 -9 -9
-26 -11 -37 -2 -10 -8 -22 -14 -26 -6 -3 -10 -9 -10 -13 4 -27 -2 -47 -22 -70
-18 -20 -23 -38 -22 -72 1 -33 -2 -43 -12 -40 -7 3 -13 -1 -13 -9 0 -8 -4 -15
-10 -15 -5 0 -10 -16 -10 -35 l0 -35 400 0 400 0 0 35 c0 19 -5 35 -11 35 -7
0 -9 10 -7 25 3 13 2 22 -2 20 -7 -4 -18 23 -26 64 -1 8 -8 18 -16 22 -7 4 -9
11 -6 15 9 8 -19 64 -32 64 -6 0 -10 20 -10 45 0 35 -6 52 -24 70 -13 13 -26
36 -29 52 -13 64 -20 88 -29 94 -5 3 -11 18 -12 33 -2 14 -12 36 -22 47 -10
11 -20 32 -22 47 -2 15 -6 29 -8 32 -9 8 -42 -42 -48 -72 -7 -34 -22 -36 -31
-5 -14 47 -30 77 -42 77 -7 0 -13 -5 -13 -11 0 -6 -7 -17 -15 -25 -8 -8 -12
-21 -9 -29 3 -8 -5 -26 -19 -40 -22 -25 -25 -25 -40 -10 -10 9 -20 28 -24 43
-13 57 -53 95 -53 51z m305 -99 c8 -16 15 -38 15 -50 0 -11 6 -23 13 -26 8 -3
13 -15 12 -27 -1 -12 9 -35 22 -50 14 -18 23 -41 23 -64 0 -20 9 -48 22 -66
13 -18 23 -39 23 -48 0 -9 6 -23 13 -32 8 -9 11 -20 8 -25 -3 -5 1 -18 9 -28
8 -10 15 -28 15 -39 0 -11 7 -28 14 -38 19 -25 9 -52 -20 -55 -23 -2 -32 8
-38 40 -4 26 -28 60 -36 52 -5 -5 -10 -27 -12 -49 l-3 -40 -48 -1 c-52 -1 -77
17 -80 57 -1 13 -7 30 -14 37 -7 7 -13 21 -13 31 0 10 -3 21 -7 25 -4 4 -9 19
-11 34 -2 15 -9 30 -15 34 -7 4 -8 8 -4 8 5 0 5 5 1 12 -4 6 -8 36 -8 66 -1
40 4 62 18 81 11 14 21 28 23 30 6 9 48 -55 48 -74 0 -11 5 -19 11 -18 5 1 11
-15 11 -35 1 -20 6 -38 12 -40 6 -2 11 -17 11 -33 0 -16 5 -29 10 -29 6 0 10
-10 10 -23 0 -25 26 -67 41 -67 12 0 12 57 -1 65 -5 3 -10 16 -10 29 0 12 -5
27 -10 32 -6 6 -12 20 -15 32 -2 13 -14 36 -26 53 -12 17 -19 38 -16 49 3 13
0 20 -9 20 -8 0 -14 9 -14 20 0 12 -6 33 -14 48 -17 33 -13 77 8 101 9 10 13
21 9 24 -3 4 -3 7 0 7 4 0 13 -13 22 -30z m-100 -60 c1 -19 -5 -41 -13 -49 -7
-8 -11 -22 -9 -32 3 -10 -2 -20 -10 -23 -8 -3 -11 -10 -8 -16 3 -5 0 -10 -8
-10 -21 0 -38 40 -40 93 -1 26 0 47 3 47 3 0 16 16 29 35 l24 35 16 -22 c9
-13 16 -39 16 -58z"/>
</g>
</svg>
